# xmcd CD database file
#
# Track frame offsets:
#	150
#	19970
#	43180
#	60307
#	81597
#	92645
#	106902
#	125480
#	150032
#	171672
#	189485
#	212027
#	219562
#	240260
#
# Disc length: 3491 seconds
#
# Revision: 0
# Processed by: cddbd v1.5PL3 Copyright (c) Steve Scherf et al.
# Submitted via: CDex 1.50
#
DISCID=b90da10e
DTITLE=KUMACHI - Re:HEART
DYEAR=2004
DGENRE=
TTITLE0=Good Bye!High School Days(Album Version/TVKテレビ「sakusaku」2月度エンディング曲)
TTITLE1=オルゴール
TTITLE2=無口な男の子
TTITLE3=レジスタンス-灰色の時代
TTITLE4=!UP THE HANDS!
TTITLE5=Sentiment
TTITLE6=I'll be here
TTITLE7=愛しい君
TTITLE8=バイバイ
TTITLE9=さよなら
TTITLE10=Raining
TTITLE11=オルゴール(リアル オルゴール Version)
TTITLE12=優(Legacy Trax)
TTITLE13=if(Legacy Trax)
EXTD=YEAR: 2004
EXTT0=
EXTT1=
EXTT2=
EXTT3=
EXTT4=
EXTT5=
EXTT6=
EXTT7=
EXTT8=
EXTT9=
EXTT10=
EXTT11=
EXTT12=
EXTT13=
PLAYORDER=
